<svg width="33" height="18" viewBox="0 0 33 18" fill="none" xmlns="http://www.w3.org/2000/svg">
<path d="M25.5 10H7.5C6.94 10 6.5 9.56 6.5 9C6.5 8.44 6.94 8 7.5 8H25.5C26.06 8 26.5 8.44 26.5 9C26.5 9.56 26.06 10 25.5 10Z" fill="white"/>
<path d="M20.5 17C20.3688 17.0016 20.2388 16.9758 20.1183 16.9241C19.9977 16.8724 19.8893 16.7961 19.8 16.7C19.4 16.3 19.4 15.68 19.8 15.28L26.1 8.98002L19.8 2.68002C19.4 2.28002 19.4 1.66002 19.8 1.26002C20.2 0.860022 20.82 0.860022 21.22 1.26002L28.22 8.26002C28.62 8.66002 28.62 9.28002 28.22 9.68002L21.22 16.68C21.02 16.88 20.76 16.98 20.52 16.98L20.5 17Z" fill="white"/>
</svg>
