<svg width="19" height="24" viewBox="0 0 19 24" fill="none" xmlns="http://www.w3.org/2000/svg">
<path d="M15.5 18.75C15.4016 18.7512 15.3041 18.7318 15.2137 18.693C15.1233 18.6543 15.042 18.597 14.975 18.525L2.975 6.52499C2.675 6.22499 2.675 5.75999 2.975 5.45999C3.275 5.15999 3.74 5.15999 4.04 5.45999L16.025 17.475C16.325 17.775 16.325 18.24 16.025 18.54C15.875 18.69 15.68 18.765 15.5 18.765V18.75Z" fill="white"/>
<path d="M3.5 18.75C3.40164 18.7512 3.30411 18.7318 3.21369 18.6931C3.12328 18.6543 3.04197 18.5971 2.975 18.525C2.675 18.225 2.675 17.76 2.975 17.46L14.975 5.475C15.275 5.175 15.74 5.175 16.04 5.475C16.34 5.775 16.34 6.24 16.04 6.54L4.025 18.525C3.875 18.675 3.68 18.75 3.5 18.75Z" fill="white"/>
</svg>
