<svg width="26" height="22" viewBox="0 0 26 22" fill="none" xmlns="http://www.w3.org/2000/svg">
<path d="M5.92562 6.56768C2.5249 6.13071 -2.50225 6.2181 4.59492 10.0635C11.6921 13.9089 20.5636 14.8702 24.1122 14.8702C25.7386 14.7246 25.4429 11.8114 20.5636 9.62653V3.94582C20.5636 2.48924 19.4103 0.0130346 14.7971 1.76094C14.5014 1.9066 13.6439 2.02313 12.5793 1.32397C11.2486 0.450018 8.58711 -0.423935 7.69996 2.6349C6.99024 5.08197 6.22135 6.27637 5.92562 6.56768ZM5.92562 6.56768C7.69989 10.4131 15.5364 10.7918 19.2329 10.5005M4.59492 12.6854C4.15133 17.9291 10.3614 26.6686 19.2329 17.4921C12.1357 17.9291 7.25635 15.7442 4.59492 12.6854Z" stroke="black" stroke-width="0.25"/>
</svg>
