<svg width="25" height="25" viewBox="0 0 25 25" fill="none" xmlns="http://www.w3.org/2000/svg">
<path d="M21.75 12.5H9.395M5.034 12.5H3.25M5.034 12.5C5.034 11.9218 5.26368 11.3673 5.67251 10.9585C6.08134 10.5497 6.63583 10.32 7.214 10.32C7.79217 10.32 8.34666 10.5497 8.75549 10.9585C9.16432 11.3673 9.394 11.9218 9.394 12.5C9.394 13.0782 9.16432 13.6327 8.75549 14.0415C8.34666 14.4503 7.79217 14.68 7.214 14.68C6.63583 14.68 6.08134 14.4503 5.67251 14.0415C5.26368 13.6327 5.034 13.0782 5.034 12.5ZM21.75 19.107H16.002M16.002 19.107C16.002 19.6853 15.7718 20.2404 15.3628 20.6494C14.9539 21.0583 14.3993 21.288 13.821 21.288C13.2428 21.288 12.6883 21.0573 12.2795 20.6485C11.8707 20.2397 11.641 19.6852 11.641 19.107M16.002 19.107C16.002 18.5287 15.7718 17.9746 15.3628 17.5657C14.9539 17.1567 14.3993 16.927 13.821 16.927C13.2428 16.927 12.6883 17.1567 12.2795 17.5655C11.8707 17.9743 11.641 18.5288 11.641 19.107M11.641 19.107H3.25M21.75 5.89301H18.645M14.284 5.89301H3.25M14.284 5.89301C14.284 5.31484 14.5137 4.76035 14.9225 4.35152C15.3313 3.94269 15.8858 3.71301 16.464 3.71301C16.7503 3.71301 17.0338 3.7694 17.2983 3.87896C17.5627 3.98851 17.8031 4.14909 18.0055 4.35152C18.2079 4.55395 18.3685 4.79427 18.4781 5.05876C18.5876 5.32325 18.644 5.60673 18.644 5.89301C18.644 6.17929 18.5876 6.46277 18.4781 6.72726C18.3685 6.99175 18.2079 7.23207 18.0055 7.43451C17.8031 7.63694 17.5627 7.79751 17.2983 7.90707C17.0338 8.01663 16.7503 8.07301 16.464 8.07301C15.8858 8.07301 15.3313 7.84333 14.9225 7.43451C14.5137 7.02568 14.284 6.47118 14.284 5.89301Z" stroke="currentColor" stroke-width="1.5" stroke-miterlimit="10" stroke-linecap="round"/>
</svg>
