<svg width="73" height="18" viewBox="0 0 73 18" fill="none" xmlns="http://www.w3.org/2000/svg">
<path d="M70.1979 5.21551C69.6185 4.613 69.0045 4.16112 68.3556 3.85987C67.7299 3.53545 66.9768 3.37323 66.0962 3.37323C65.2388 3.37323 64.4856 3.53545 63.8368 3.85987C63.2111 4.16112 62.6781 4.58983 62.2378 5.14599C61.8207 5.67898 61.4963 6.30466 61.2646 7.02303C61.056 7.71823 60.9517 8.44819 60.9517 9.2129C60.9517 9.97762 61.0792 10.7076 61.3341 11.4028C61.589 12.0748 61.9482 12.6657 62.4116 13.1755C62.8751 13.6854 63.4313 14.0909 64.0801 14.3921C64.729 14.6702 65.4589 14.8093 66.27 14.8093C67.1506 14.8093 67.9037 14.6586 68.5294 14.3574C69.1551 14.033 69.7344 13.5695 70.2674 12.967L72.492 15.1916C71.681 16.0954 70.7309 16.7442 69.6417 17.1382C68.5757 17.5321 67.4403 17.7291 66.2352 17.7291C64.9607 17.7291 63.7904 17.5205 62.7245 17.1034C61.6817 16.6863 60.7779 16.107 60.0132 15.3654C59.2485 14.6007 58.6576 13.6969 58.2404 12.6541C57.8233 11.5882 57.6147 10.4179 57.6147 9.14339C57.6147 7.86885 57.8233 6.6986 58.2404 5.63263C58.6576 4.56666 59.2369 3.65131 59.9784 2.88659C60.7431 2.12187 61.6469 1.53095 62.6897 1.11383C63.7557 0.673542 64.9375 0.453396 66.2352 0.453396C67.4403 0.453396 68.5873 0.673542 69.6765 1.11383C70.7888 1.53095 71.7505 2.17981 72.5616 3.06039L70.1979 5.21551Z" fill="white"/>
<path d="M28.8073 0.870516H31.7271V3.44276H31.7966C31.8661 3.21102 32.0399 2.92135 32.318 2.57376C32.6193 2.22616 32.99 1.90173 33.4303 1.60048C33.8938 1.27605 34.4268 1.00956 35.0293 0.800997C35.655 0.569264 36.3386 0.453396 37.0801 0.453396C38.3083 0.453396 39.3395 0.708304 40.1738 1.21812C41.008 1.72793 41.6916 2.49265 42.2246 3.51227C42.7576 2.49265 43.5107 1.72793 44.484 1.21812C45.4573 0.708304 46.4422 0.453396 47.4386 0.453396C48.7132 0.453396 49.756 0.661956 50.567 1.07908C51.3781 1.4962 52.0154 2.05236 52.4788 2.74755C52.9423 3.41958 53.2551 4.19588 53.4173 5.07647C53.6027 5.93388 53.6954 6.82606 53.6954 7.75299V17.3467H50.567V8.17011C50.567 7.54443 50.5207 6.94192 50.428 6.36259C50.3585 5.78326 50.1963 5.27345 49.9413 4.83315C49.6864 4.39286 49.3273 4.04526 48.8638 3.79035C48.4003 3.51227 47.7862 3.37323 47.0215 3.37323C45.5152 3.37323 44.4377 3.8367 43.7888 4.76363C43.14 5.69057 42.8155 6.88399 42.8155 8.34391V17.3467H39.6871V8.72627C39.6871 7.93838 39.6408 7.22 39.5481 6.57115C39.4786 5.9223 39.3164 5.36614 39.0615 4.90267C38.8297 4.41603 38.4821 4.04526 38.0187 3.79035C37.5784 3.51227 36.9759 3.37323 36.2111 3.37323C35.655 3.37323 35.1104 3.4891 34.5774 3.72083C34.0676 3.92939 33.6157 4.25382 33.2218 4.69411C32.8278 5.13441 32.515 5.70215 32.2833 6.39735C32.0515 7.06938 31.9357 7.86886 31.9357 8.79579V17.3467H28.8073V0.870516Z" fill="white"/>
<path d="M0 0.688029H2.91984V3.26027H2.98936C3.05888 3.02853 3.23268 2.73887 3.51076 2.39127C3.81202 2.04367 4.18279 1.71924 4.62308 1.41799C5.08655 1.09356 5.61954 0.82707 6.22205 0.61851C6.84773 0.386776 7.53134 0.270908 8.27289 0.270908C9.50108 0.270908 10.5323 0.525817 11.3665 1.03563C12.2008 1.54544 12.8844 2.31016 13.4174 3.32979C13.9504 2.31016 14.7035 1.54544 15.6768 1.03563C16.6501 0.525817 17.6349 0.270908 18.6314 0.270908C19.9059 0.270908 20.9487 0.479468 21.7598 0.896588C22.5708 1.31371 23.2081 1.86987 23.6716 2.56507C24.135 3.23709 24.4479 4.0134 24.6101 4.89398C24.7955 5.7514 24.8882 6.64357 24.8882 7.5705V17.1643H21.7598V7.98762C21.7598 7.36194 21.7134 6.75944 21.6207 6.1801C21.5512 5.60077 21.389 5.09096 21.1341 4.65066C20.8792 4.21037 20.52 3.86277 20.0565 3.60787C19.5931 3.32979 18.979 3.19075 18.2143 3.19075C16.708 3.19075 15.6304 3.65421 14.9816 4.58115C14.3327 5.50808 14.0083 6.7015 14.0083 8.16142V17.1643H10.8799V8.54378C10.8799 7.75589 10.8335 7.03752 10.7408 6.38866C10.6713 5.73981 10.5091 5.18365 10.2542 4.72018C10.0225 4.23354 9.67487 3.86277 9.21141 3.60787C8.77111 3.32979 8.16861 3.19075 7.40389 3.19075C6.84773 3.19075 6.30315 3.30661 5.77016 3.53835C5.26035 3.74691 4.80847 4.07133 4.41452 4.51162C4.02058 4.95192 3.70774 5.51966 3.476 6.21486C3.24427 6.88689 3.1284 7.68637 3.1284 8.6133V17.1643H0V0.688029Z" fill="white"/>
</svg>
