<svg width="15" height="16" viewBox="0 0 15 16" fill="none" xmlns="http://www.w3.org/2000/svg">
<path d="M6.5 13.0199C5.77764 13.0201 5.06231 12.8781 4.39486 12.6018C3.7274 12.3256 3.12091 11.9206 2.61 11.4099C1.57 10.3699 1 8.9899 1 7.5199C1 6.0499 1.57 4.6699 2.61 3.6299C4.75 1.4899 8.24 1.4899 10.39 3.6299C11.43 4.6699 12 6.0499 12 7.5199C12 8.9899 11.43 10.3699 10.39 11.4099C9.8791 11.9206 9.2726 12.3256 8.60514 12.6018C7.93769 12.8781 7.22236 13.0201 6.5 13.0199ZM6.5 3.0199C5.35 3.0199 4.2 3.4599 3.32 4.3399C2.47 5.1899 2 6.3199 2 7.5199C2 8.7199 2.47 9.8499 3.32 10.6999C4.16504 11.5402 5.3083 12.0118 6.5 12.0118C7.6917 12.0118 8.83496 11.5402 9.68 10.6999C10.53 9.8499 11 8.7199 11 7.5199C11 6.3199 10.53 5.1899 9.68 4.3399C9.26319 3.92103 8.76764 3.58875 8.22187 3.36221C7.67611 3.13567 7.09092 3.01933 6.5 3.0199Z" fill="white"/>
<path d="M13.5 15.0001C13.4344 15.0009 13.3694 14.988 13.3091 14.9621C13.2488 14.9363 13.1946 14.8981 13.15 14.8501L9.77 11.4701C9.57 11.2701 9.57 10.9601 9.77 10.7601C9.97 10.5601 10.28 10.5601 10.48 10.7601L13.86 14.1401C14.06 14.3401 14.06 14.6501 13.86 14.8501C13.76 14.9501 13.63 15.0001 13.51 15.0001H13.5Z" fill="white"/>
</svg>
